<svg xmlns="http://www.w3.org/2000/svg" viewBox="0 0 227.65 143.97"><defs><style>.cls-1{fill:#683c11;}</style></defs><g id="Layer_2" data-name="Layer 2"><g id="Layer_1-2" data-name="Layer 1"><path class="cls-1" d="M17.08,6.75C28.42,11.92,36.36,21.84,45,30.45A115.37,115.37,0,0,0,60.28,43c2.85,2,5.7,4,8.39,6.23A68.94,68.94,0,0,1,76,56.42,68.44,68.44,0,0,0,84.83,65,120.81,120.81,0,0,0,95,71.79c1.07.67,2.9.1,4-.3.34-.12,2.78-1.24,1.81-1.84-6.24-3.88-12.17-7.89-17.18-13.34a100.4,100.4,0,0,0-7.52-7.78,93.81,93.81,0,0,0-7.91-6.13A134.22,134.22,0,0,1,52.45,30C48,25.69,44,21.1,39.56,16.81,34.61,12,29.22,7.5,22.87,4.61a5.5,5.5,0,0,0-4,.3c-.26.09-2.84,1.37-1.81,1.84Z"/><path class="cls-1" d="M25.61,5.2c-2-1-4.07-2-6.17-2.89A27.78,27.78,0,0,0,12.79.05,6.86,6.86,0,0,0,6.32,2.89,25.09,25.09,0,0,0,3.81,8.11,57.49,57.49,0,0,0,0,30.59,58.42,58.42,0,0,0,5.18,53c3.32,7.22,8.2,13.14,13.39,19.09A97.69,97.69,0,0,1,26,81.31a41.18,41.18,0,0,1,3,5,10,10,0,0,1,.8,2.05,4.51,4.51,0,0,1,.16.78,3.36,3.36,0,0,1-.06.8c.12.08.75-1.18.92-.55a6.22,6.22,0,0,0-1.16.08,6.77,6.77,0,0,0-3.81,1.74c-1.5,1.42-2.3,3.46-3.14,5.3s-1.72,3.92-2.45,5.93-1.37,4.49-.62,6.73c.33,1,.85,1.82,1.16,2.78a11.07,11.07,0,0,1,.5,3.07,24.7,24.7,0,0,0,.61,6.54c1.21,3.94,4.3,7,7.14,9.79,6,6,13.16,11,21.71,12.28a25.64,25.64,0,0,0,13.4-1.52,28.78,28.78,0,0,0,9.76-6.9c5.69-5.88,8.92-13.47,13.32-20.26a49.84,49.84,0,0,1,3.77-5.14,2,2,0,0,0-.85-3.19,4.05,4.05,0,0,0-4.36,1.17c-5.13,6.1-8.22,13.51-12.73,20-3.79,5.47-8.85,10.67-15.62,11.26-7.7.67-14.74-3.38-20.35-8.27a44.65,44.65,0,0,1-7.6-8.06,10.25,10.25,0,0,1-1.84-4.85c-.2-2,0-4.07-.34-6.1-.3-1.88-1.69-3.57-1.77-5.46s.94-3.88,1.64-5.6c.78-1.91,1.62-3.8,2.53-5.65a7.18,7.18,0,0,1,.42-.83c.08-.13.24-.26.31-.4.19-.38-.18.13-.32.2-.74.38-.62.12-.16.12.2,0,.4,0,.6,0a9.24,9.24,0,0,0,1.8-.35c8.87-2.82.09-14.42-3-18.41-4.55-5.86-9.94-11.06-14.09-17.24A53.13,53.13,0,0,1,7.3,38.79a55.86,55.86,0,0,1-.08-21,50.59,50.59,0,0,1,3-10.14c.32-.77.65-1.55,1-2.29.1-.21.26-.43.35-.62s.21-.18.15-.23-1,.37-1.06.24a4.72,4.72,0,0,0,1,.31l1.55.55c1,.38,2,.79,3.06,1.21,1.95.82,3.86,1.73,5.73,2.71,2.68,1.4,7-2.51,3.51-4.35Z"/><path class="cls-1" d="M96.41,104.16l.18-.22-3.66,1a4,4,0,0,0,.54.22,4.64,4.64,0,0,1,1,.83,6.85,6.85,0,0,1,1.46,3,45.64,45.64,0,0,1,1.39,7.78c.53,4.55,1.12,9.18,3.68,13.1,2.79,4.26,8.15,7.1,12.9,3.79,2-1.41,2.15-3.84,2.56-6.07l1.54-8.47,1.73-9.44c.27-1.48.47-3,.84-4.45.13-.53.4-1,.56-1.46.38-1.1-3.13-.25-2.51.8l6-1.93c-3.83-5-15.33-3-15.12,4.1.1,3.35,3.4,4.3,6.21,3.9s7.11-2.21,6.7-5.69l-5.58,2.14c6.86,3.06,11.67,9.29,16.2,15s9.16,11.7,15.85,15a16.92,16.92,0,0,0,6.27,1.91,15.85,15.85,0,0,0,8.82-2.57c3.87-2.24,7.82-4.33,11.68-6.57,7.61-4.4,15.16-9.5,19.79-17.17,2.38-4,4.17-9.64-.46-12.74-3.25-2.17-7.85-2.26-10.35-5.5L180.42,97l3.92-.24-1.54-1.33c-.44.46-.47.23-.16.26.12,0,1.17-.07.6-.2L181.06,98a39.19,39.19,0,0,0,18.64-11.2c5.24-5.47,9.05-12.15,12.58-18.8Q218.16,57,224,45.83c1.76-3.4,3.4-6.95,3.67-10.82A14.6,14.6,0,0,0,225,25.76c-4.12-6.1-11.18-8.76-18.17-9.92-4.25-.71-8.62-1.15-12.75.37-3.59,1.31-6.9,3.66-10.19,5.58-12.77,7.45-25.47,15.07-37.51,23.65a193,193,0,0,0-32.88,28.92q-1.82,2.06-3.56,4.19l5.7-1.22c-3.3-3.68-8.52-4-13-2.65a4.28,4.28,0,0,1-.78.23l.69-.11-.22-.08a13.78,13.78,0,0,0-1.53-.93c-1-.78-2-1.64-3-2.46q-3-2.55-6.15-5Q79.23,56.22,66.07,47q-7.38-5.15-15-10c-1.12-.72-2.87-.26-4,.18-.38.15-2.81,1.36-1.76,2q13.4,8.61,26.19,18.1Q77.89,62.08,84.12,67c2.13,1.7,4.25,3.43,6.35,5.17,1.91,1.57,3.76,3.53,6,4.7a7.19,7.19,0,0,0,4.47.69,16.34,16.34,0,0,0,2.4-.54,4.52,4.52,0,0,1,1-.26,7.58,7.58,0,0,1,5.58,2.75c.56.62,2.17.3,2.79.16a5.29,5.29,0,0,0,2.92-1.39C133.1,57,156.33,41.52,179.84,27.54c2.93-1.74,5.88-3.46,8.82-5.18l4.41-2.56c1.24-.72,2.5-1.74,4-1.76a35.77,35.77,0,0,1,10,1.56,23.27,23.27,0,0,1,8.73,4.45A16.32,16.32,0,0,1,221,31.78a15.46,15.46,0,0,1-.77,9.92,91.44,91.44,0,0,1-4.92,10l-5.7,10.86c-3.8,7.22-7.42,14.66-12.52,21.08-4.29,5.41-10,10.37-16.63,12a4.76,4.76,0,0,0-2.5,1.3c-.35.45-.37,1,.32,1.2a11.23,11.23,0,0,0,10.2-2.91c1-1-.88-1.37-1.54-1.33l-3.92.24c-.86,0-5.35,1-4.16,2.55,2.08,2.71,5.69,3.37,8.68,4.64a7,7,0,0,1,3.58,2.82c1.1,2,.63,4.4-.21,6.45-3.05,7.44-10,12.68-16.64,16.72-3.55,2.16-7.23,4.11-10.85,6.14-.87.49-1.74,1-2.6,1.48-.48.28-1,.56-1.45.83-.15.08-1.18.51-.69.41s-.23,0-.32-.07c-.27-.06-.55-.12-.82-.2-.43-.12-.85-.26-1.26-.4a22.22,22.22,0,0,1-2.4-1c-6.12-3.1-10.51-8.83-14.67-14.1-4.92-6.23-9.95-12.63-17.38-16-1-.45-2.67,0-3.62.39-.68.26-2.07.84-2,1.75.08.67-.22,1-.43,1.51-.13.36-.57.16.63-.14.07,0,.9-.09.9-.09-.15.28-1.21-1-1.29-1.13a3.87,3.87,0,0,1-.4-1.95,4.12,4.12,0,0,1,.63-1.9c.08-.13.23-.23.29-.38.37-.26.31-.24-.2,0a3.31,3.31,0,0,1-.81.2,10.21,10.21,0,0,1,1.55.53,5.73,5.73,0,0,1,1.73,1.56c1,1.26,6.67-.74,6-1.94-1.51-2.57-5.78-1.33-7.81-.16-2.54,1.46-2.7,4.31-3.18,6.92l-3.35,18.39a33.08,33.08,0,0,1-.81,4.08c-.08.25-.28.54-.33.79l-.13.17,3.07-.86c-.27-.29-1.34-.53-1.73-.77a12.24,12.24,0,0,1-4.41-5.12c-2.33-4.78-2.31-10.14-3.17-15.28-.45-2.71-1-6-3.29-7.84-2.48-1.92-6.91-1.24-8.86,1.16-.88,1.08.76,1.35,1.54,1.33,1.28,0,3.23-.49,4.1-1.56Z"/></g></g></svg>