<svg xmlns="http://www.w3.org/2000/svg" viewBox="0 0 513.53 409.08"><defs><style>.cls-1{font-size:35px;}.cls-1,.cls-2{fill:#f15a24;font-family:LucidaConsole, Lucida Console;}.cls-2{font-size:37px;}</style></defs><g id="Layer_2" data-name="Layer 2"><g id="Layer_1-2" data-name="Layer 1"><text class="cls-1" transform="translate(269 37.16) rotate(41.44)">t</text><text class="cls-1" transform="translate(284.73 51.02) rotate(40.18)">h</text><text class="cls-1" transform="translate(300.81 64.58) rotate(39.59)">e</text><text class="cls-1" transform="translate(317.03 78.02) rotate(39.28)"> </text><text class="cls-1" transform="translate(333.23 91.31) rotate(37.97)">m</text><text class="cls-1" transform="translate(350.17 104.57) rotate(35.46)">o</text><text class="cls-1" transform="matrix(0.85, 0.52, -0.52, 0.85, 368.13, 117.37)">t</text><text class="cls-1" transform="matrix(0.9, 0.45, -0.45, 0.9, 387.19, 129.09)">h</text><text class="cls-1" transform="translate(406.83 138.43) rotate(23.93)"> </text><text class="cls-1" transform="matrix(0.84, 0.55, -0.55, 0.84, 425.55, 146.16)">b</text><text class="cls-1" transform="translate(442.05 156.79) rotate(49.8)">e</text><text class="cls-1" transform="translate(454.88 172.26) rotate(60.57)">t</text><text class="cls-1" transform="translate(464.92 190.39) rotate(64.06)">w</text><text class="cls-1" transform="translate(474.12 208.79) rotate(69.7)">e</text><text class="cls-1" transform="matrix(0.14, 0.99, -0.99, 0.14, 481.41, 227.4)">e</text><text class="cls-1" transform="translate(484.62 246.54) rotate(102.83)">n</text><text class="cls-1" transform="translate(480.82 265.23) rotate(127.19)"> </text><text class="cls-1" transform="matrix(-0.85, 0.53, -0.53, -0.85, 469.24, 280.67)">t</text><text class="cls-1" transform="translate(452.35 291.11) rotate(161.47)">h</text><text class="cls-1" transform="translate(433.05 297.5) rotate(169.39)">e</text><text class="cls-1" transform="translate(412.71 301.19) rotate(173.58)"> </text><text class="cls-1" transform="translate(391.84 303.57) rotate(174.65)">r</text><text class="cls-1" transform="translate(371.05 305.54) rotate(176.59)">e</text><text class="cls-1" transform="matrix(-1, 0.01, -0.01, -1, 350.25, 306.82)">l</text><text class="cls-1" transform="matrix(-1, -0.06, 0.06, -1, 329.52, 307.07)">a</text><text class="cls-1" transform="translate(308.94 305.96) rotate(-171.91)">y</text><text class="cls-1" transform="translate(288.6 303.13) rotate(-165.93)">s</text><text class="cls-1" transform="matrix(-0.93, -0.36, 0.36, -0.93, 268.74, 298.23)">,</text><text class="cls-1" transform="matrix(0.01, 1, -1, 0.01, 232.02, 300.27)"> </text><text class="cls-1" transform="matrix(-0.57, 0.82, -0.82, -0.57, 234.89, 318.53)">s</text><text class="cls-1" transform="translate(225.2 334.08) rotate(159.19)">o</text><text class="cls-1" transform="translate(207.09 340.46) rotate(179.26)">m</text><text class="cls-1" transform="matrix(-1, 0.08, -0.08, -1, 184.87, 339.75)">e</text><text class="cls-1" transform="translate(159.22 342.8) rotate(156.9)"> </text><text class="cls-1" transform="matrix(-0.87, 0.5, -0.5, -0.87, 138.45, 352.11)">h</text><text class="cls-1" transform="matrix(-0.88, 0.47, -0.47, -0.88, 120.46, 362.69)">u</text><text class="cls-1" transform="translate(102.95 372.55) rotate(163.03)">m</text><text class="cls-1" transform="translate(84.08 378.55) rotate(177.76)">m</text><text class="cls-1" transform="matrix(-0.95, -0.3, 0.3, -0.95, 64.66, 379.86)">i</text><text class="cls-1" transform="translate(46.39 375.03) rotate(-133.32)">n</text><text class="cls-1" transform="matrix(-0.21, -0.98, 0.98, -0.21, 33.28, 361.8)">g</text><text class="cls-1" transform="translate(29.36 342.92) rotate(-82.24)"> </text><text class="cls-1" transform="translate(32.32 322.86) rotate(-73.74)">o</text><text class="cls-1" transform="matrix(0.37, -0.93, 0.93, 0.37, 38.1, 303.1)">f</text><text class="cls-1" transform="translate(45.72 283.79) rotate(-64.95)"> </text><text class="cls-1" transform="translate(54.6 264.89) rotate(-62.89)">e</text><text class="cls-1" transform="translate(64.23 246.19) rotate(-62.38)">l</text><text class="cls-1" transform="translate(74 227.61) rotate(-63.4)">e</text><text class="cls-1" transform="matrix(0.41, -0.91, 0.91, 0.41, 83.7, 208.35)">c</text><text class="cls-1" transform="translate(92.72 188.05) rotate(-70.62)">t</text><text class="cls-1" transform="matrix(0.23, -0.97, 0.97, 0.23, 100.13, 166.71)">r</text><text class="cls-1" transform="translate(104.88 145.96) rotate(-77.95)">o</text><text class="cls-1" transform="translate(109.01 125.69) rotate(-73.61)">m</text><text class="cls-1" transform="matrix(0.45, -0.89, 0.89, 0.45, 114.42, 106.3)">a</text><text class="cls-1" transform="matrix(0.68, -0.74, 0.74, 0.68, 123, 88.53)">g</text><text class="cls-1" transform="translate(136.37 74) rotate(-32.75)">n</text><text class="cls-1" transform="translate(153.59 63.15) rotate(-24.91)">e</text><text class="cls-1" transform="translate(172.71 54.54) rotate(-24.25)">t</text><text class="cls-1" transform="translate(193.96 45.09) rotate(-32.79)">s</text><text class="cls-2" transform="translate(216.23 30.39) rotate(-53.79)"> </text></g></g></svg>