<svg xmlns="http://www.w3.org/2000/svg" viewBox="0 0 1574.2 334.61"><defs><style>.cls-1{font-size:30px;fill:#00a99d;font-family:LucidaConsole, Lucida Console;}</style></defs><g id="Layer_2" data-name="Layer 2"><g id="Layer_1-2" data-name="Layer 1"><text class="cls-1" transform="translate(24.28 125.63) rotate(-89.41)">P</text><text class="cls-1" transform="matrix(0.23, -0.97, 0.97, 0.23, 24.35, 108.57)">o</text><text class="cls-1" transform="translate(28.32 91.88) rotate(-64.4)">e</text><text class="cls-1" transform="translate(35.72 76.33) rotate(-53.67)">t</text><text class="cls-1" transform="matrix(0.72, -0.7, 0.7, 0.72, 45.94, 62.37)">r</text><text class="cls-1" transform="translate(58.4 50.24) rotate(-35.19)">y</text><text class="cls-1" transform="translate(72.58 40.18) rotate(-26.62)"> </text><text class="cls-1" transform="translate(88.09 32.34) rotate(-17.93)">c</text><text class="cls-1" transform="translate(104.58 26.93) rotate(-8.73)">a</text><text class="cls-1" transform="matrix(1, 0.03, -0.03, 1, 121.64, 24.18)">n</text><text class="cls-1" transform="translate(139.13 24.54) rotate(8.96)"> </text><text class="cls-1" transform="translate(156.38 27.24) rotate(16.33)">b</text><text class="cls-1" transform="translate(173.21 32.15) rotate(23.09)">e</text><text class="cls-1" transform="translate(189.4 39.04) rotate(29.2)"> </text><text class="cls-1" transform="matrix(0.82, 0.57, -0.57, 0.82, 204.8, 47.64)">d</text><text class="cls-1" transform="translate(219.32 57.68) rotate(39.64)">e</text><text class="cls-1" transform="translate(232.95 68.97) rotate(44.17)">f</text><text class="cls-1" transform="matrix(0.66, 0.75, -0.75, 0.66, 245.69, 81.34)">i</text><text class="cls-1" transform="matrix(0.61, 0.79, -0.79, 0.61, 257.48, 94.6)">n</text><text class="cls-1" transform="translate(268.31 108.71) rotate(55.79)">e</text><text class="cls-1" transform="translate(278.34 123.48) rotate(58.51)">d</text><text class="cls-1" transform="translate(287.68 138.75) rotate(60.72)"> </text><text class="cls-1" transform="translate(296.44 154.39) rotate(62.4)">a</text><text class="cls-1" transform="matrix(0.45, 0.9, -0.9, 0.45, 304.76, 170.34)">s</text><text class="cls-1" transform="translate(312.78 186.48) rotate(64.17)"> </text><text class="cls-1" transform="translate(320.64 202.75) rotate(64.27)">t</text><text class="cls-1" transform="translate(328.46 219.01) rotate(63.85)">h</text><text class="cls-1" transform="matrix(0.46, 0.89, -0.89, 0.46, 336.38, 235.18)">e</text><text class="cls-1" transform="translate(344.59 251.32) rotate(61.06)"> </text><text class="cls-1" transform="translate(353.75 267.97) rotate(56.8)">a</text><text class="cls-1" transform="translate(364.51 284.39) rotate(49.58)">c</text><text class="cls-1" transform="matrix(0.78, 0.63, -0.63, 0.78, 377.82, 299.85)">t</text><text class="cls-1" transform="matrix(0.89, 0.45, -0.45, 0.89, 394.16, 312.62)"> </text><text class="cls-1" transform="matrix(0.96, 0.27, -0.27, 0.96, 412.58, 321.59)">o</text><text class="cls-1" transform="translate(432.13 326.84) rotate(5.57)">f</text><text class="cls-1" transform="translate(452.21 328.61) rotate(-3.94)"> </text><text class="cls-1" transform="translate(472.25 327.07) rotate(-13.37)">e</text><text class="cls-1" transform="matrix(0.92, -0.38, 0.38, 0.92, 491.68, 322.25)">x</text><text class="cls-1" transform="matrix(0.86, -0.51, 0.51, 0.86, 509.96, 314.58)">p</text><text class="cls-1" transform="translate(526.84 304.53) rotate(-37.72)">e</text><text class="cls-1" transform="translate(542.22 292.52) rotate(-44.39)">r</text><text class="cls-1" transform="matrix(0.63, -0.77, 0.77, 0.63, 556.02, 278.89)">i</text><text class="cls-1" transform="matrix(0.55, -0.83, 0.83, 0.55, 568.21, 263.91)">m</text><text class="cls-1" transform="translate(578.38 248.45) rotate(-59.19)">e</text><text class="cls-1" transform="matrix(0.51, -0.86, 0.86, 0.51, 587.55, 232.95)">n</text><text class="cls-1" transform="translate(596.62 217.57) rotate(-56.74)">t</text><text class="cls-1" transform="translate(606.22 202.74) rotate(-51.4)">i</text><text class="cls-1" transform="matrix(0.73, -0.68, 0.68, 0.73, 616.95, 189.07)">n</text><text class="cls-1" transform="matrix(0.86, -0.51, 0.51, 0.86, 629.43, 177.29)">g</text><text class="cls-1" transform="translate(644 168.44) rotate(-17.15)"> </text><text class="cls-1" transform="translate(660.27 163.34) rotate(-4.03)">w</text><text class="cls-1" transform="translate(677.48 162.15) rotate(6.36)">i</text><text class="cls-1" transform="matrix(0.97, 0.23, -0.23, 0.97, 694.89, 164.15)">t</text><text class="cls-1" transform="matrix(0.96, 0.29, -0.29, 0.96, 712.19, 168.27)">h</text><text class="cls-1" transform="translate(729.41 173.51) rotate(17.44)"> </text><text class="cls-1" transform="translate(746.82 179.06) rotate(15.42)">t</text><text class="cls-1" transform="matrix(0.98, 0.17, -0.17, 0.98, 765.33, 184.21)">h</text><text class="cls-1" transform="matrix(0.95, -0.3, 0.3, 0.95, 789.56, 188.98)">e</text><text class="cls-1" transform="translate(813.41 169.15) rotate(-85.86)"> </text><text class="cls-1" transform="translate(814.23 150.74) rotate(-86.76)">w</text><text class="cls-1" transform="translate(814.68 133.84) rotate(-70.46)">o</text><text class="cls-1" transform="translate(820.09 118.07) rotate(-51.37)">r</text><text class="cls-1" transform="translate(830.63 104.86) rotate(-36.49)">l</text><text class="cls-1" transform="translate(844.53 94.62) rotate(-26.28)">d</text><text class="cls-1" transform="matrix(0.94, -0.33, 0.33, 0.94, 860.26, 86.89)"> </text><text class="cls-1" transform="translate(876.96 81.05) rotate(-14.57)">b</text><text class="cls-1" transform="translate(894.2 76.63) rotate(-11.41)">y</text><text class="cls-1" transform="translate(911.87 73.05) rotate(-10.9)"> </text><text class="cls-1" transform="translate(929.53 69.63) rotate(-9.92)">r</text><text class="cls-1" transform="matrix(0.99, -0.15, 0.15, 0.99, 947.23, 66.52)">e</text><text class="cls-1" transform="matrix(0.99, -0.11, 0.11, 0.99, 964.96, 63.87)">s</text><text class="cls-1" transform="translate(982.7 61.8) rotate(-4.14)">h</text><text class="cls-1" transform="translate(1000.49 60.5) rotate(-1.16)">u</text><text class="cls-1" transform="matrix(1, 0.04, -0.04, 1, 1018.26, 60.11)">f</text><text class="cls-1" transform="translate(1036 60.83) rotate(6.65)">f</text><text class="cls-1" transform="translate(1053.55 62.85) rotate(11.51)">l</text><text class="cls-1" transform="translate(1070.85 66.33) rotate(16.96)">i</text><text class="cls-1" transform="translate(1087.69 71.43) rotate(22.87)">n</text><text class="cls-1" transform="translate(1103.89 78.25) rotate(28.85)">g</text><text class="cls-1" transform="translate(1119.39 86.83) rotate(33.45)"> </text><text class="cls-1" transform="matrix(0.81, 0.59, -0.59, 0.81, 1134.25, 96.69)">s</text><text class="cls-1" transform="matrix(0.79, 0.61, -0.61, 0.79, 1148.71, 107.38)">e</text><text class="cls-1" transform="translate(1162.98 118.37) rotate(36.86)">m</text><text class="cls-1" transform="translate(1177.65 129.42) rotate(34.44)">i</text><text class="cls-1" transform="translate(1193.32 140.19) rotate(30)">o</text><text class="cls-1" transform="translate(1210.17 149.84) rotate(23.74)">t</text><text class="cls-1" transform="translate(1227.97 157.59) rotate(17.61)">i</text><text class="cls-1" transform="translate(1246.4 163.37) rotate(11.71)">c</text><text class="cls-1" transform="translate(1265.34 167.22) rotate(5.92)"> </text><text class="cls-1" transform="translate(1284.54 169.15) rotate(0.2)">p</text><text class="cls-1" transform="translate(1303.85 169.16) rotate(-5.56)">a</text><text class="cls-1" transform="translate(1323.11 167.22) rotate(-11.43)">t</text><text class="cls-1" transform="translate(1342.07 163.33) rotate(-17.49)">t</text><text class="cls-1" transform="translate(1360.58 157.42) rotate(-23.8)">e</text><text class="cls-1" transform="matrix(0.86, -0.51, 0.51, 0.86, 1378.4, 149.48)">r</text><text class="cls-1" transform="matrix(0.8, -0.6, 0.6, 0.8, 1395.16, 139.5)">n</text><text class="cls-1" transform="matrix(0.74, -0.67, 0.67, 0.74, 1410.35, 127.79)">s</text></g></g></svg>