<svg xmlns="http://www.w3.org/2000/svg" viewBox="0 0 674.69 226.04"><defs><style>.cls-1{font-size:33px;fill:#4d4d4d;font-family:LucidaConsole, Lucida Console;}</style></defs><g id="Layer_2" data-name="Layer 2"><g id="Layer_1-2" data-name="Layer 1"><text class="cls-1" transform="matrix(0.96, 0.27, -0.27, 0.96, 333.12, 26.03)">t</text><text class="cls-1" transform="translate(353.43 32.07) rotate(10.5)">h</text><text class="cls-1" transform="translate(372.99 35.67) rotate(10.18)">e</text><text class="cls-1" transform="translate(392.56 39.18) rotate(10.1)"> </text><text class="cls-1" transform="translate(412.15 42.66) rotate(10.12)">p</text><text class="cls-1" transform="translate(431.68 46.17) rotate(10.01)">l</text><text class="cls-1" transform="translate(451.37 49.71) rotate(8.3)">a</text><text class="cls-1" transform="translate(471.96 52.75) rotate(4.49)">t</text><text class="cls-1" transform="matrix(1, -0.01, 0.01, 1, 492.95, 54.28)">e</text><text class="cls-1" transform="matrix(1, 0.02, -0.02, 1, 512.64, 53.87)"> </text><text class="cls-1" transform="matrix(0.98, 0.18, -0.18, 0.98, 531.69, 53.92)">b</text><text class="cls-1" transform="translate(550.1 57.73) rotate(22.24)">e</text><text class="cls-1" transform="matrix(1, -0.02, 0.02, 1, 573.97, 67.82)">t</text><text class="cls-1" transform="matrix(0.98, -0.18, 0.18, 0.98, 595.87, 65.98)">w</text><text class="cls-1" transform="matrix(0.99, 0.13, -0.13, 0.99, 613.92, 61.71)">e</text><text class="cls-1" transform="matrix(0.81, 0.59, -0.59, 0.81, 631.68, 63.02)">e</text><text class="cls-1" transform="matrix(0.04, 1, -1, 0.04, 647.52, 71.08)">n</text><text class="cls-1" transform="translate(647.13 86.06) rotate(138.12)"> </text><text class="cls-1" transform="matrix(-0.85, 0.53, -0.53, -0.85, 633.03, 98.75)">t</text><text class="cls-1" transform="translate(616.72 108.86) rotate(156.16)">h</text><text class="cls-1" transform="matrix(-0.95, 0.31, -0.31, -0.95, 599, 116.64)">e</text><text class="cls-1" transform="matrix(-0.97, 0.25, -0.25, -0.97, 580.42, 122.67)"> </text><text class="cls-1" transform="matrix(-0.98, 0.22, -0.22, -0.98, 561.32, 127.52)">r</text><text class="cls-1" transform="matrix(-0.98, 0.21, -0.21, -0.98, 541.94, 131.75)">i</text><text class="cls-1" transform="matrix(-0.97, 0.24, -0.24, -0.97, 522.46, 135.92)">b</text><text class="cls-1" transform="translate(503.13 140.69) rotate(164.05)">c</text><text class="cls-1" transform="translate(484.19 146.1) rotate(161.99)">a</text><text class="cls-1" transform="translate(465.43 152.2) rotate(159.92)">g</text><text class="cls-1" transform="translate(446.93 158.95) rotate(157.86)">e</text><text class="cls-1" transform="translate(428.69 166.37) rotate(155.8)"> </text><text class="cls-1" transform="matrix(-0.9, 0.44, -0.44, -0.9, 410.72, 174.44)">s</text><text class="cls-1" transform="matrix(-0.9, 0.44, -0.44, -0.9, 393.03, 183.4)">p</text><text class="cls-1" transform="matrix(-0.95, 0.32, -0.32, -0.95, 375.92, 192.13)">a</text><text class="cls-1" transform="translate(358.37 198.42) rotate(176.2)">c</text><text class="cls-1" transform="translate(339.82 199.63) rotate(-169.16)">e</text><text class="cls-1" transform="translate(321.03 195.85) rotate(-161.3)">,</text><text class="cls-1" transform="translate(302.36 189.3) rotate(-160.31)"> </text><text class="cls-1" transform="translate(282.88 182.36) rotate(-163.71)">s</text><text class="cls-1" transform="matrix(-0.97, -0.23, 0.23, -0.97, 263.11, 176.62)">a</text><text class="cls-1" transform="matrix(-0.98, -0.19, 0.19, -0.98, 243.24, 171.94)">m</text><text class="cls-1" transform="translate(223.89 168.2) rotate(-170.86)">e</text><text class="cls-1" transform="translate(204.38 165.08) rotate(-172.18)"> </text><text class="cls-1" transform="matrix(-0.99, -0.12, 0.12, -0.99, 184.76, 162.4)">h</text><text class="cls-1" transform="matrix(-0.99, -0.11, 0.11, -0.99, 165.06, 160)">u</text><text class="cls-1" transform="matrix(-0.99, -0.12, 0.12, -0.99, 145.3, 157.73)">m</text><text class="cls-1" transform="translate(125.6 155.42) rotate(-172.71)">m</text><text class="cls-1" transform="translate(106 152.93) rotate(-171.66)">i</text><text class="cls-1" transform="matrix(-0.98, -0.18, 0.18, -0.98, 86.49, 150.16)">n</text><text class="cls-1" transform="translate(67.75 147.38) rotate(-158.32)">g</text><text class="cls-1" transform="translate(50.64 140.84) rotate(-139.52)"> </text><text class="cls-1" transform="matrix(-0.55, -0.83, 0.83, -0.55, 36.5, 129.06)">o</text><text class="cls-1" transform="matrix(0.1, -1, 1, 0.1, 25.49, 117.93)">f</text><text class="cls-1" transform="translate(25.63 103.78) rotate(-42.42)"> </text><text class="cls-1" transform="matrix(0.91, -0.41, 0.41, 0.91, 39.25, 91.98)">e</text><text class="cls-1" transform="translate(56.97 84.23) rotate(-18.12)">l</text><text class="cls-1" transform="translate(75.75 78.19) rotate(-16.27)">e</text><text class="cls-1" transform="translate(94.75 72.64) rotate(-15.55)">c</text><text class="cls-1" transform="matrix(0.97, -0.26, 0.26, 0.97, 113.85, 67.33)">t</text><text class="cls-1" transform="translate(133 62.26) rotate(-14.1)">r</text><text class="cls-1" transform="translate(152.23 57.43) rotate(-13.37)">o</text><text class="cls-1" transform="matrix(0.98, -0.22, 0.22, 0.98, 171.5, 52.85)">m</text><text class="cls-1" transform="translate(190.82 48.51) rotate(-11.92)">a</text><text class="cls-1" transform="matrix(0.98, -0.19, 0.19, 0.98, 210.23, 44.42)">g</text><text class="cls-1" transform="translate(229.66 40.57) rotate(-10.47)">n</text><text class="cls-1" transform="matrix(0.99, -0.17, 0.17, 0.99, 249.14, 36.97)">e</text><text class="cls-1" transform="matrix(0.99, -0.16, 0.16, 0.99, 268.69, 33.61)">t</text><text class="cls-1" transform="translate(288.25 30.51) rotate(-8.3)">s</text></g></g></svg>