<svg xmlns="http://www.w3.org/2000/svg" viewBox="0 0 1277.1 404.15"><defs><style>.cls-1,.cls-2{font-size:33px;font-family:LucidaConsole, Lucida Console;}.cls-1{fill:#f15a24;}.cls-2{fill:#4d4d4d;}</style></defs><g id="Layer_2" data-name="Layer 2"><g id="Layer_1-2" data-name="Layer 1"><text class="cls-1" transform="translate(265.76 35.47) rotate(41.49)">t</text><text class="cls-1" transform="matrix(0.76, 0.65, -0.65, 0.76, 280.58, 48.56)">h</text><text class="cls-1" transform="translate(295.73 61.36) rotate(39.63)">e</text><text class="cls-1" transform="translate(311.01 74.03) rotate(39.41)"> </text><text class="cls-1" transform="matrix(0.78, 0.62, -0.62, 0.78, 326.29, 86.62)">m</text><text class="cls-1" transform="translate(341.96 99.08) rotate(36.39)">o</text><text class="cls-1" transform="matrix(0.84, 0.55, -0.55, 0.84, 358.58, 111.34)">t</text><text class="cls-1" transform="translate(376.08 122.8) rotate(28.85)">h</text><text class="cls-1" transform="translate(394.61 132.91) rotate(23.72)"> </text><text class="cls-1" transform="matrix(0.89, 0.45, -0.45, 0.89, 412.75, 140.45)">b</text><text class="cls-1" transform="translate(429.71 148.48) rotate(39.87)">e</text><text class="cls-1" transform="translate(443.96 160.43) rotate(54.45)">t</text><text class="cls-1" transform="matrix(0.47, 0.88, -0.88, 0.47, 454.97, 176.12)">w</text><text class="cls-1" transform="translate(464.12 193.49) rotate(64.84)">e</text><text class="cls-1" transform="translate(472.51 210.88) rotate(71.33)">e</text><text class="cls-1" transform="matrix(0.1, 0.99, -0.99, 0.1, 478.87, 228.57)">n</text><text class="cls-1" transform="translate(481.22 246.69) rotate(104.4)"> </text><text class="cls-1" transform="translate(477.1 264.24) rotate(127.48)">t</text><text class="cls-1" transform="matrix(-0.84, 0.54, -0.54, -0.84, 466.11, 278.75)">h</text><text class="cls-1" transform="matrix(-0.94, 0.33, -0.33, -0.94, 450.31, 288.81)">e</text><text class="cls-1" transform="translate(432.25 295.16) rotate(168.43)"> </text><text class="cls-1" transform="translate(413.17 299) rotate(173.15)">r</text><text class="cls-1" transform="translate(393.54 301.33) rotate(174.28)">e</text><text class="cls-1" transform="translate(373.9 303.32) rotate(175.87)">l</text><text class="cls-1" transform="matrix(-1, 0.03, -0.03, -1, 354.29, 304.77)">a</text><text class="cls-1" transform="translate(334.72 305.41) rotate(-178.56)">y</text><text class="cls-1" transform="matrix(-1, -0.1, 0.1, -1, 315.2, 304.96)">s</text><text class="cls-1" transform="translate(295.87 303.12) rotate(-169.35)">,</text><text class="cls-1" transform="translate(276.88 299.61) rotate(-163.28)"> </text><text class="cls-1" transform="translate(258.18 293.92) rotate(-156.91)">s</text><text class="cls-1" transform="matrix(-0.06, 1, -1, -0.06, 229.68, 303.88)">o</text><text class="cls-1" transform="translate(230.78 320.91) rotate(132.86)">m</text><text class="cls-1" transform="translate(219.21 334.07) rotate(163.08)">e</text><text class="cls-1" transform="translate(201.52 338.91) rotate(179.97)"> </text><text class="cls-1" transform="translate(180.34 338.11) rotate(175.27)">h</text><text class="cls-1" transform="translate(156.26 341.08) rotate(157.36)">u</text><text class="cls-1" transform="translate(136.51 349.72) rotate(150.39)">m</text><text class="cls-1" transform="translate(119.41 359.66) rotate(151.17)">m</text><text class="cls-1" transform="matrix(-0.94, 0.34, -0.34, -0.94, 102.88, 369.24)">i</text><text class="cls-1" transform="matrix(-0.99, 0.11, -0.11, -0.99, 85.36, 375.78)">n</text><text class="cls-1" transform="matrix(-0.98, -0.18, 0.18, -0.98, 67, 378.19)">g</text><text class="cls-1" transform="translate(49.16 375.7) rotate(-145.23)"> </text><text class="cls-1" transform="translate(34.34 366.21) rotate(-114.7)">o</text><text class="cls-1" transform="matrix(0, -1, 1, 0, 26.85, 350.02)">f</text><text class="cls-1" transform="translate(27.04 331.3) rotate(-77.05)"> </text><text class="cls-1" transform="translate(31.38 312.43) rotate(-71.44)">e</text><text class="cls-1" transform="matrix(0.39, -0.92, 0.92, 0.39, 37.6, 293.98)">l</text><text class="cls-1" transform="translate(45.26 275.92) rotate(-64.18)">e</text><text class="cls-1" transform="translate(53.89 258.16) rotate(-62.63)">c</text><text class="cls-1" transform="matrix(0.46, -0.89, 0.89, 0.46, 63.05, 240.57)">t</text><text class="cls-1" transform="translate(72.24 223.03) rotate(-63.64)">r</text><text class="cls-1" transform="matrix(0.4, -0.92, 0.92, 0.4, 81.32, 204.79)">o</text><text class="cls-1" transform="translate(89.74 185.61) rotate(-70.67)">m</text><text class="cls-1" transform="translate(96.71 165.55) rotate(-76.38)">a</text><text class="cls-1" transform="translate(101.3 145.89) rotate(-78.08)">g</text><text class="cls-1" transform="translate(105.2 126.71) rotate(-74.72)">n</text><text class="cls-1" transform="translate(110.03 108.21) rotate(-66.09)">e</text><text class="cls-1" transform="translate(117.34 91.01) rotate(-52.21)">t</text><text class="cls-1" transform="matrix(0.8, -0.6, 0.6, 0.8, 128.66, 76.3)">s</text><text class="cls-1" transform="matrix(0.89, -0.45, 0.45, 0.89, 143.92, 65)"> </text><text class="cls-2" transform="matrix(0.96, 0.27, -0.27, 0.96, 935.53, 101.77)">t</text><text class="cls-2" transform="translate(955.84 107.81) rotate(10.5)">h</text><text class="cls-2" transform="translate(975.4 111.41) rotate(10.18)">e</text><text class="cls-2" transform="translate(994.98 114.92) rotate(10.1)"> </text><text class="cls-2" transform="translate(1014.56 118.4) rotate(10.12)">p</text><text class="cls-2" transform="translate(1034.1 121.91) rotate(10.01)">l</text><text class="cls-2" transform="translate(1053.78 125.45) rotate(8.3)">a</text><text class="cls-2" transform="translate(1074.38 128.49) rotate(4.49)">t</text><text class="cls-2" transform="matrix(1, -0.01, 0.01, 1, 1095.37, 130.02)">e</text><text class="cls-2" transform="matrix(1, 0.02, -0.02, 1, 1115.06, 129.61)"> </text><text class="cls-2" transform="matrix(0.98, 0.18, -0.18, 0.98, 1134.11, 129.66)">b</text><text class="cls-2" transform="translate(1152.51 133.47) rotate(22.24)">e</text><text class="cls-2" transform="matrix(1, -0.02, 0.02, 1, 1176.38, 143.56)">t</text><text class="cls-2" transform="matrix(0.98, -0.18, 0.18, 0.98, 1198.29, 141.72)">w</text><text class="cls-2" transform="matrix(0.99, 0.13, -0.13, 0.99, 1216.34, 137.44)">e</text><text class="cls-2" transform="matrix(0.81, 0.59, -0.59, 0.81, 1234.1, 138.76)">e</text><text class="cls-2" transform="matrix(0.04, 1, -1, 0.04, 1249.94, 146.82)">n</text><text class="cls-2" transform="translate(1249.55 161.8) rotate(138.12)"> </text><text class="cls-2" transform="matrix(-0.85, 0.53, -0.53, -0.85, 1235.44, 174.49)">t</text><text class="cls-2" transform="translate(1219.13 184.59) rotate(156.16)">h</text><text class="cls-2" transform="matrix(-0.95, 0.31, -0.31, -0.95, 1201.42, 192.38)">e</text><text class="cls-2" transform="matrix(-0.97, 0.25, -0.25, -0.97, 1182.84, 198.41)"> </text><text class="cls-2" transform="matrix(-0.98, 0.22, -0.22, -0.98, 1163.74, 203.25)">r</text><text class="cls-2" transform="matrix(-0.98, 0.21, -0.21, -0.98, 1144.36, 207.48)">i</text><text class="cls-2" transform="matrix(-0.97, 0.24, -0.24, -0.97, 1124.88, 211.66)">b</text><text class="cls-2" transform="translate(1105.55 216.43) rotate(164.05)">c</text><text class="cls-2" transform="translate(1086.61 221.84) rotate(161.99)">a</text><text class="cls-2" transform="translate(1067.85 227.93) rotate(159.92)">g</text><text class="cls-2" transform="translate(1049.35 234.69) rotate(157.86)">e</text><text class="cls-2" transform="translate(1031.1 242.11) rotate(155.8)"> </text><text class="cls-2" transform="matrix(-0.9, 0.44, -0.44, -0.9, 1013.14, 250.18)">s</text><text class="cls-2" transform="matrix(-0.9, 0.44, -0.44, -0.9, 995.45, 259.14)">p</text><text class="cls-2" transform="matrix(-0.95, 0.32, -0.32, -0.95, 978.34, 267.86)">a</text><text class="cls-2" transform="translate(960.79 274.16) rotate(176.2)">c</text><text class="cls-2" transform="translate(942.24 275.36) rotate(-169.16)">e</text><text class="cls-2" transform="translate(923.44 271.59) rotate(-161.3)">,</text><text class="cls-2" transform="translate(904.78 265.04) rotate(-160.31)"> </text><text class="cls-2" transform="translate(885.3 258.1) rotate(-163.71)">s</text><text class="cls-2" transform="matrix(-0.97, -0.23, 0.23, -0.97, 865.53, 252.36)">a</text><text class="cls-2" transform="matrix(-0.98, -0.19, 0.19, -0.98, 845.66, 247.68)">m</text><text class="cls-2" transform="translate(826.31 243.94) rotate(-170.86)">e</text><text class="cls-2" transform="translate(806.8 240.81) rotate(-172.18)"> </text><text class="cls-2" transform="matrix(-0.99, -0.12, 0.12, -0.99, 787.18, 238.13)">h</text><text class="cls-2" transform="matrix(-0.99, -0.11, 0.11, -0.99, 767.47, 235.74)">u</text><text class="cls-2" transform="matrix(-0.99, -0.12, 0.12, -0.99, 747.71, 233.47)">m</text><text class="cls-2" transform="translate(728.02 231.16) rotate(-172.71)">m</text><text class="cls-2" transform="translate(708.42 228.67) rotate(-171.66)">i</text><text class="cls-2" transform="matrix(-0.98, -0.18, 0.18, -0.98, 688.91, 225.9)">n</text><text class="cls-2" transform="translate(670.16 223.11) rotate(-158.32)">g</text><text class="cls-2" transform="translate(653.06 216.58) rotate(-139.52)"> </text><text class="cls-2" transform="matrix(-0.55, -0.83, 0.83, -0.55, 638.91, 204.8)">o</text><text class="cls-2" transform="matrix(0.1, -1, 1, 0.1, 627.9, 193.67)">f</text><text class="cls-2" transform="translate(628.04 179.52) rotate(-42.42)"> </text><text class="cls-2" transform="matrix(0.91, -0.41, 0.41, 0.91, 641.67, 167.72)">e</text><text class="cls-2" transform="translate(659.39 159.96) rotate(-18.12)">l</text><text class="cls-2" transform="translate(678.17 153.93) rotate(-16.27)">e</text><text class="cls-2" transform="translate(697.16 148.38) rotate(-15.55)">c</text><text class="cls-2" transform="matrix(0.97, -0.26, 0.26, 0.97, 716.27, 143.06)">t</text><text class="cls-2" transform="translate(735.42 137.99) rotate(-14.1)">r</text><text class="cls-2" transform="translate(754.65 133.17) rotate(-13.37)">o</text><text class="cls-2" transform="matrix(0.98, -0.22, 0.22, 0.98, 773.92, 128.59)">m</text><text class="cls-2" transform="translate(793.24 124.25) rotate(-11.92)">a</text><text class="cls-2" transform="matrix(0.98, -0.19, 0.19, 0.98, 812.65, 120.15)">g</text><text class="cls-2" transform="translate(832.08 116.31) rotate(-10.47)">n</text><text class="cls-2" transform="matrix(0.99, -0.17, 0.17, 0.99, 851.55, 112.71)">e</text><text class="cls-2" transform="matrix(0.99, -0.16, 0.16, 0.99, 871.11, 109.35)">t</text><text class="cls-2" transform="translate(890.66 106.25) rotate(-8.3)">s</text></g></g></svg>